P2 
8 6 
500 
  2   4   4   8   6   4   2   2 
 10   8 254 500 110   8   6   4 
500 390 500 168  38 160 146 500 
500 146 160  38 168 500 390 500 
  4   6   8 110 500 254   8  10 
  2   2   4   6   8   4   4   2 
