P2 
800 1 
500 
 28  28  28  28  28  28  28  28  28  28  28  28  28  30  30  30  30  32  32  32  32  34  34  34  34  34  34  34  36  36  36  36  36  38  40  40  42  52 500  74 294 212 438 338 376 500 500 496 482 448 500 404 298 422 280 232 248 356 500 228 500 232 158 126 118 124 500 218 248 500 196 500 500 500 250 402 326 440 446 302 500 500 500 500 500 500 396 194 182 178 176 176 176 178 500 184 180 188 500 240 500 466 208 194 194 196 198 198 200 202 206 222 500 500 500 466 430 416 500 340 294 500 318 500 484 408 500 500 470 500 500 500 490 500 500 500 442 500 500 378 372 368 368 368 370 374 378 382 388 392 396 400 402 500 500 500 500 500 500 470 500 500 500 500 500 500 500 500 500 500 500 500 500 500 500 500 500 500 500 500 500 500 500 500 500 500 500 500 500 500 500 500 500 500 500 500 500 500 500 500 500 500 500 500 500 500 500 500 500 500 500 500 500 500 500 500 500 500 500 500 500 500 500 500 500 500 500 500 500 500 500 500 500 500 500 500 500 500 500 500 486 484 486 488 492 500 500 498 488 480 500 500 500 414 416 420 424 428 442 500 500 500 470 456 500 500 500 500 500 500 334 332 336 500 478 500 500 500 500 354 500 304 292 292 280 264 258 256 256 256 258 260 260 262 272 500 500 500 500 500 500 400 352 324 286 316 500 372 500 426 500 420 348 500 194 180 176 176 178 490 500 424 280 304 500 500 500 434 266 274 376 500 332 312 294 306 272 500 282 272 500 500 294 500 160 162 172 346 432 204 414 128 368 108 104 102 102 102 102 102 110 104 100 100 100 100 100 100 100 100 100 100 100 100 100 102 102 102 102 102 104 104 104 106 106 106 108 108 110 110 112 114 120 500 500 500 500 166 500 500 500 500 166 500 500 500 500 120 114 112 110 110 108 108 106 106 106 104 104 104 102 102 102 102 102 100 100 100 100 100 100 100 100 100 100 100 100 100 104 110 102 102 102 102 102 104 108 368 128 414 204 432 346 172 162 160 500 294 500 500 272 282 500 272 306 294 312 332 500 376 274 266 434 500 500 500 304 280 424 500 490 178 176 176 180 194 500 348 420 500 426 500 372 500 316 286 324 352 400 500 500 500 500 500 500 272 262 260 260 258 256 256 256 258 264 280 292 292 304 500 354 500 500 500 500 478 500 336 332 334 500 500 500 500 500 500 456 470 500 500 500 442 428 424 420 416 414 500 500 500 480 488 498 500 500 492 488 486 484 486 500 500 500 500 500 500 500 500 500 500 500 500 500 500 500 500 500 500 500 500 500 500 500 500 500 500 500 500 500 500 500 500 500 500 500 500 500 500 500 500 500 500 500 500 500 500 500 500 500 500 500 500 500 500 500 500 500 500 500 500 500 500 500 500 500 500 500 500 500 500 500 500 500 500 500 500 500 500 500 500 470 500 500 500 500 500 500 402 400 396 392 388 382 378 374 370 368 368 368 372 378 500 500 442 500 500 500 490 500 500 500 470 500 500 408 484 500 318 500 294 340 500 416 430 466 500 500 500 222 206 202 200 198 198 196 194 194 208 466 500 240 500 188 180 184 500 178 176 176 176 178 182 194 396 500 500 500 500 500 500 302 446 440 326 402 250 500 500 500 196 500 248 218 500 124 118 126 158 232 500 228 500 356 248 232 280 422 298 404 500 448 482 496 500 500 376 338 438 212 294  74 500  52  42  40  40  38  36  36  36  36  36  34  34  34  34  34  34  34  32  32  32  32  30  30  30  30  28  28  28  28  28  28  28  28  28  28  28  28  28 
